<?xml version="1.0" encoding="utf-8"?>
<svg viewBox="211.108 156.576 45.096 39.823" xmlns="http://www.w3.org/2000/svg">
  <title>logo</title>
  <polygon class="st0" points="217.629 173.298 213.829 173.298 211.929 176.598 213.829 179.898 217.629 179.898 219.629 176.598" style="fill: rgb(20, 191, 152);"/>
  <polygon class="st0" points="222.229 165.398 218.429 165.398 216.529 168.698 218.429 171.998 222.229 171.998 224.129 168.698" style="fill: rgb(20, 191, 152);"/>
  <polygon class="st0" points="226.729 157.598 222.929 157.598 221.029 160.898 222.929 164.198 226.729 164.198 228.629 160.898" style="fill: rgb(20, 191, 152);"/>
  <polygon class="st0" points="235.829 157.598 231.929 157.598 230.029 160.898 231.929 164.198 235.829 164.198 237.729 160.898" style="fill: rgb(20, 191, 152);"/>
  <polygon class="st0" points="231.029 166.198 228.129 166.198 226.629 168.698 228.129 171.198 231.029 171.198 232.529 168.698" style="fill: rgb(20, 191, 152);"/>
  <polygon class="st0" points="240.129 166.198 237.129 166.198 235.729 168.698 237.129 171.198 240.129 171.198 241.529 168.698" style="fill: rgb(20, 191, 152);"/>
  <polygon class="st0" points="230.729 183.298 228.429 183.298 227.329 185.298 228.429 187.298 230.729 187.298 231.829 185.298" style="fill: rgb(20, 191, 152);"/>
  <polygon class="st0" points="239.829 183.298 237.529 183.298 236.329 185.298 237.529 187.298 239.829 187.298 240.929 185.298" style="fill: rgb(20, 191, 152);"/>
  <polygon class="st0" points="234.829 192.298 232.929 192.298 231.929 193.898 232.929 195.598 234.829 195.598 235.829 193.898" style="fill: rgb(20, 191, 152);"/>
  <polygon class="st0" points="244.829 157.598 241.029 157.598 239.129 160.898 241.029 164.198 244.829 164.198 246.829 160.898" style="fill: rgb(20, 191, 152);"/>
  <polygon class="st0" points="226.429 173.798 223.229 173.798 221.729 176.498 223.229 179.198 226.429 179.198 227.929 176.498" style="fill: rgb(20, 191, 152);"/>
  <polygon class="st0" points="244.529 173.798 241.429 173.798 239.829 176.498 241.429 179.198 244.529 179.198 246.129 176.498" style="fill: rgb(20, 191, 152);"/>
  <polygon class="st0" points="235.229 174.198 232.529 174.198 231.229 176.498 232.529 178.798 235.229 178.798 236.529 176.498" style="fill: rgb(20, 191, 152);"/>
  <polygon class="st0" points="249.329 165.398 245.529 165.398 243.629 168.698 245.529 171.998 249.329 171.998 251.229 168.698" style="fill: rgb(20, 191, 152);"/>
  <polygon class="st0" points="221.629 182.598 218.529 182.598 216.929 185.298 218.529 187.998 221.629 187.998 223.229 185.298" style="fill: rgb(20, 191, 152);"/>
  <polygon class="st0" points="224.329 192.498 222.529 192.498 221.629 194.098 222.529 195.598 224.329 195.598 225.229 194.098" style="fill: rgb(20, 191, 152);"/>
  <polygon class="st0" points="253.929 173.298 250.129 173.298 248.229 176.598 250.129 179.898 253.929 179.898 255.829 176.598" style="fill: rgb(20, 191, 152);"/>
  <polygon class="st0" points="249.229 182.598 246.129 182.598 244.529 185.298 246.129 187.998 249.229 187.998 250.829 185.298" style="fill: rgb(20, 191, 152);"/>
  <polygon class="st0" points="245.229 191.298 242.729 191.298 241.429 193.398 242.729 195.598 245.229 195.598 246.429 193.398" style="fill: rgb(20, 191, 152);"/>
  <path class="st1" d="M 290.929 192.098 L 284.829 192.098 L 284.829 185.998 L 272.629 185.998 L 272.629 192.098 L 266.529 192.098 L 266.529 173.898 C 266.529 172.298 266.829 170.698 267.529 169.198 C 268.129 167.798 269.029 166.398 270.129 165.298 C 271.229 164.198 272.529 163.298 274.029 162.698 C 277.029 161.398 280.529 161.398 283.529 162.698 C 286.429 163.898 288.829 166.298 290.029 169.198 C 290.629 170.698 291.029 172.298 291.029 173.898 L 290.929 192.098 L 290.929 192.098 Z M 284.829 179.998 L 284.829 173.898 C 284.829 173.098 284.629 172.298 284.329 171.498 C 283.729 169.998 282.529 168.898 281.029 168.298 C 279.529 167.698 277.829 167.698 276.329 168.298 C 274.829 168.898 273.729 170.098 273.029 171.498 C 272.729 172.198 272.529 173.098 272.529 173.898 L 272.529 179.998 L 284.829 179.998 Z" style="fill: rgb(255, 255, 255);"/>
  <path class="st1" d="M 301.429 192.098 L 295.629 192.098 L 295.629 169.398 L 297.029 169.398 L 298.929 172.098 C 300.829 170.398 303.229 169.398 305.829 169.398 L 310.929 169.398 L 310.929 175.198 L 305.829 175.198 C 305.229 175.198 304.629 175.298 304.129 175.498 C 302.529 176.198 301.429 177.798 301.429 179.598 L 301.429 192.098 L 301.429 192.098 Z" style="fill: rgb(255, 255, 255);"/>
  <path class="st1" d="M 320.529 163.198 C 320.529 163.698 320.429 164.198 320.229 164.698 C 320.029 165.198 319.729 165.598 319.429 165.898 C 319.029 166.298 318.629 166.498 318.229 166.698 C 317.229 167.098 316.129 167.098 315.229 166.698 C 314.329 166.298 313.529 165.598 313.129 164.698 C 312.729 163.698 312.729 162.698 313.129 161.698 C 313.529 160.798 314.229 159.998 315.229 159.598 C 316.229 159.198 317.329 159.198 318.229 159.598 C 318.729 159.798 319.129 160.098 319.429 160.398 C 319.829 160.798 320.029 161.198 320.229 161.598 C 320.329 162.198 320.529 162.698 320.529 163.198 Z M 319.529 192.098 L 313.729 192.098 L 313.729 169.398 L 319.529 169.398 L 319.529 192.098 Z" style="fill: rgb(255, 255, 255);"/>
  <path class="st1" d="M 345.929 192.098 L 344.529 192.098 L 342.229 188.998 C 341.629 189.498 341.129 189.998 340.429 190.398 C 339.829 190.798 339.129 191.198 338.529 191.498 C 337.829 191.798 337.129 192.098 336.429 192.298 C 335.729 192.498 335.029 192.598 334.229 192.598 C 332.729 192.598 331.129 192.298 329.729 191.798 C 328.329 191.298 327.129 190.498 326.029 189.498 C 324.929 188.398 324.129 187.098 323.529 185.698 C 322.929 184.098 322.629 182.398 322.629 180.598 C 322.629 178.898 322.929 177.298 323.529 175.698 C 324.129 174.298 324.929 172.998 326.029 171.898 C 327.129 170.798 328.329 169.998 329.729 169.398 C 331.129 168.798 332.729 168.498 334.229 168.498 C 334.929 168.498 335.729 168.598 336.429 168.798 C 337.129 168.998 337.829 169.198 338.529 169.598 C 339.229 169.898 339.829 170.298 340.429 170.698 C 341.029 171.098 341.629 171.598 342.129 172.098 L 344.429 169.398 L 345.829 169.398 L 345.829 192.098 L 345.929 192.098 Z M 340.129 180.598 C 340.129 179.798 339.929 178.998 339.629 178.298 C 339.329 177.598 338.929 176.898 338.429 176.298 C 337.929 175.698 337.329 175.298 336.629 174.898 C 335.929 174.598 335.129 174.398 334.429 174.398 C 333.629 174.398 332.929 174.498 332.229 174.798 C 331.529 175.098 330.929 175.498 330.429 175.998 C 329.929 176.598 329.429 177.198 329.229 177.898 C 328.929 178.698 328.729 179.598 328.829 180.498 C 328.829 181.398 328.929 182.298 329.229 183.098 C 329.529 183.798 329.929 184.498 330.429 184.998 C 330.929 185.498 331.529 185.898 332.229 186.198 C 332.929 186.498 333.729 186.598 334.429 186.598 C 335.229 186.598 335.929 186.398 336.629 186.098 C 337.329 185.798 337.929 185.298 338.429 184.698 C 338.929 184.098 339.329 183.498 339.629 182.698 C 339.929 182.098 340.129 181.398 340.129 180.598 Z" style="fill: rgb(255, 255, 255);"/>
</svg>