<?xml version="1.0" encoding="utf-8"?>
<svg viewBox="433.582 230.786 44.306 38.409" xmlns="http://www.w3.org/2000/svg">
  <title>logo</title>
  <polygon class="st0" points="217.629 173.298 213.829 173.298 211.929 176.598 213.829 179.898 217.629 179.898 219.629 176.598" style="fill: rgb(20, 191, 152);" transform="matrix(1, 0, 0, 1, 221.872278, 73.401988)"/>
  <polygon class="st0" points="222.229 165.398 218.429 165.398 216.529 168.698 218.429 171.998 222.229 171.998 224.129 168.698" style="fill: rgb(20, 191, 152);" transform="matrix(1, 0, 0, 1, 221.872278, 73.401988)"/>
  <polygon class="st0" points="226.729 157.598 222.929 157.598 221.029 160.898 222.929 164.198 226.729 164.198 228.629 160.898" style="fill: rgb(20, 191, 152);" transform="matrix(1, 0, 0, 1, 221.872278, 73.401988)"/>
  <polygon class="st0" points="235.829 157.598 231.929 157.598 230.029 160.898 231.929 164.198 235.829 164.198 237.729 160.898" style="fill: rgb(20, 191, 152);" transform="matrix(1, 0, 0, 1, 221.872278, 73.401988)"/>
  <polygon class="st0" points="231.029 166.198 228.129 166.198 226.629 168.698 228.129 171.198 231.029 171.198 232.529 168.698" style="fill: rgb(20, 191, 152);" transform="matrix(1, 0, 0, 1, 221.872278, 73.401988)"/>
  <polygon class="st0" points="240.129 166.198 237.129 166.198 235.729 168.698 237.129 171.198 240.129 171.198 241.529 168.698" style="fill: rgb(20, 191, 152);" transform="matrix(1, 0, 0, 1, 221.872278, 73.401988)"/>
  <polygon class="st0" points="230.729 183.298 228.429 183.298 227.329 185.298 228.429 187.298 230.729 187.298 231.829 185.298" style="fill: rgb(20, 191, 152);" transform="matrix(1, 0, 0, 1, 221.872278, 73.401988)"/>
  <polygon class="st0" points="239.829 183.298 237.529 183.298 236.329 185.298 237.529 187.298 239.829 187.298 240.929 185.298" style="fill: rgb(20, 191, 152);" transform="matrix(1, 0, 0, 1, 221.872278, 73.401988)"/>
  <polygon class="st0" points="234.829 192.298 232.929 192.298 231.929 193.898 232.929 195.598 234.829 195.598 235.829 193.898" style="fill: rgb(20, 191, 152);" transform="matrix(1, 0, 0, 1, 221.872278, 73.401988)"/>
  <polygon class="st0" points="244.829 157.598 241.029 157.598 239.129 160.898 241.029 164.198 244.829 164.198 246.829 160.898" style="fill: rgb(20, 191, 152);" transform="matrix(1, 0, 0, 1, 221.872278, 73.401988)"/>
  <polygon class="st0" points="226.429 173.798 223.229 173.798 221.729 176.498 223.229 179.198 226.429 179.198 227.929 176.498" style="fill: rgb(20, 191, 152);" transform="matrix(1, 0, 0, 1, 221.872278, 73.401988)"/>
  <polygon class="st0" points="244.529 173.798 241.429 173.798 239.829 176.498 241.429 179.198 244.529 179.198 246.129 176.498" style="fill: rgb(20, 191, 152);" transform="matrix(1, 0, 0, 1, 221.872278, 73.401988)"/>
  <polygon class="st0" points="235.229 174.198 232.529 174.198 231.229 176.498 232.529 178.798 235.229 178.798 236.529 176.498" style="fill: rgb(20, 191, 152);" transform="matrix(1, 0, 0, 1, 221.872278, 73.401988)"/>
  <polygon class="st0" points="249.329 165.398 245.529 165.398 243.629 168.698 245.529 171.998 249.329 171.998 251.229 168.698" style="fill: rgb(20, 191, 152);" transform="matrix(1, 0, 0, 1, 221.872278, 73.401988)"/>
  <polygon class="st0" points="221.629 182.598 218.529 182.598 216.929 185.298 218.529 187.998 221.629 187.998 223.229 185.298" style="fill: rgb(20, 191, 152);" transform="matrix(1, 0, 0, 1, 221.872278, 73.401988)"/>
  <polygon class="st0" points="224.329 192.498 222.529 192.498 221.629 194.098 222.529 195.598 224.329 195.598 225.229 194.098" style="fill: rgb(20, 191, 152);" transform="matrix(1, 0, 0, 1, 221.872278, 73.401988)"/>
  <polygon class="st0" points="253.929 173.298 250.129 173.298 248.229 176.598 250.129 179.898 253.929 179.898 255.829 176.598" style="fill: rgb(20, 191, 152);" transform="matrix(1, 0, 0, 1, 221.872278, 73.401988)"/>
  <polygon class="st0" points="249.229 182.598 246.129 182.598 244.529 185.298 246.129 187.998 249.229 187.998 250.829 185.298" style="fill: rgb(20, 191, 152);" transform="matrix(1, 0, 0, 1, 221.872278, 73.401988)"/>
  <polygon class="st0" points="245.229 191.298 242.729 191.298 241.429 193.398 242.729 195.598 245.229 195.598 246.429 193.398" style="fill: rgb(20, 191, 152);" transform="matrix(1, 0, 0, 1, 221.872278, 73.401988)"/>
</svg>